<?xml version="1.0" encoding="UTF-8" standalone="no"?>
<!DOCTYPE svg PUBLIC "-//W3C//DTD SVG 1.0//EN" "http://www.w3.org/TR/2001/PR-SVG-20010719/DTD/svg10.dtd">
<svg width="36cm" height="5cm" viewBox="146 75 703 86" xmlns="http://www.w3.org/2000/svg" xmlns:xlink="http://www.w3.org/1999/xlink">
  <defs/>
  <g id="Hintergrund">
    <g transform="matrix(1.56959,0,0,1.56959,114.622,48.0914)">
      <ellipse style="fill: #f59c00; fill-opacity: 1; stroke-opacity: 0; stroke-width: 0.02; stroke: #ffffff" cx="162.65" cy="55.051" rx="6.312" ry="6.312"/>
      <ellipse style="fill: #f59c00; fill-opacity: 1; stroke-opacity: 0; stroke-width: 0.02; stroke: #ffffff" cx="173.055" cy="65.456" rx="6.311" ry="6.311"/>
      <ellipse style="fill: #f59c00; fill-opacity: 1; stroke-opacity: 0; stroke-width: 0.02; stroke: #ffffff" cx="141.841" cy="34.242" rx="6.311" ry="6.311"/>
      <ellipse style="fill: #f59c00; fill-opacity: 1; stroke-opacity: 0; stroke-width: 0.02; stroke: #ffffff" cx="131.436" cy="23.837" rx="6.311" ry="6.311"/>
      <ellipse style="fill: #f59c00; fill-opacity: 1; stroke-opacity: 0; stroke-width: 0.02; stroke: #ffffff" cx="141.841" cy="55.051" rx="6.311" ry="6.311"/>
      <ellipse style="fill: #f59c00; fill-opacity: 1; stroke-opacity: 0; stroke-width: 0.02; stroke: #ffffff" cx="131.436" cy="65.456" rx="6.311" ry="6.311"/>
      <ellipse style="fill: #f59c00; fill-opacity: 1; stroke-opacity: 0; stroke-width: 0.02; stroke: #ffffff" cx="162.65" cy="34.242" rx="6.312" ry="6.312"/>
      <ellipse style="fill: #f59c00; fill-opacity: 1; stroke-opacity: 0; stroke-width: 0.02; stroke: #ffffff" cx="173.055" cy="23.837" rx="6.311" ry="6.311"/>
      <path style="fill: #0c2842; fill-opacity: 1; stroke-opacity: 0; stroke-width: 0.02; stroke: #ffffff" fill-rule="evenodd" d="M 28.741 20.264 C 26.325,20.264 23.909,20.264 21.493,20.264 C 20.839,20.264 20.246,20.8 20.246,21.452 C 20.246,35.3573 20.246,49.2627 20.246,63.168 C 20.246,63.82 20.839,64.415 21.493,64.415 C 23.909,64.415 26.325,64.415 28.741,64.415 C 29.395,64.415 29.87,63.82 29.87,63.168 C 29.87,49.2627 29.87,35.3573 29.87,21.452 C 29.87,20.799 29.395,20.264 28.741,20.264 C 28.741,20.264 28.741,20.264 28.741,20.264z"/>
      <path style="fill: #0c2842; fill-opacity: 1; stroke-opacity: 0; stroke-width: 0.02; stroke: #ffffff" fill-rule="evenodd" d="M 45.639 20.309 C 43.0647,20.309 40.4903,20.309 37.916,20.309 C 37.262,20.309 36.727,20.844 36.727,21.497 C 36.727,23.055 36.727,24.613 36.727,26.171 C 36.727,26.825 37.263,27.36 37.916,27.36 C 40.4903,27.36 43.0647,27.36 45.639,27.36 C 46.293,27.36 46.828,26.824 46.828,26.171 C 46.828,24.613 46.828,23.055 46.828,21.497 C 46.829,20.844 46.293,20.309 45.639,20.309z"/>
      <path style="fill: #0c2842; fill-opacity: 1; stroke-opacity: 0; stroke-width: 0.02; stroke: #ffffff" fill-rule="evenodd" d="M 45.403 30.373 C 42.9863,30.373 40.5697,30.373 38.153,30.373 C 37.499,30.373 36.966,30.908 36.966,31.561 C 36.966,42.1163 36.966,52.6717 36.966,63.227 C 36.966,63.881 37.499,64.415 38.153,64.415 C 40.5697,64.415 42.9863,64.415 45.403,64.415 C 46.054,64.415 46.59,63.881 46.59,63.227 C 46.59,52.6717 46.59,42.1163 46.59,31.561 C 46.59,30.907 46.054,30.373 45.403,30.373 C 45.403,30.373 45.403,30.373 45.403,30.373z"/>
      <path style="fill: #0c2842; fill-opacity: 1; stroke-opacity: 0; stroke-width: 0.02; stroke: #ffffff" fill-rule="evenodd" d="M 72.425 29.897 C 68.623,29.897 66.008,30.669 62.741,32.986 C 62.741,32.5107 62.741,32.0353 62.741,31.56 C 62.741,30.906 62.205,30.372 61.552,30.372 C 59.334,30.372 57.116,30.372 54.898,30.372 C 54.244,30.372 53.711,30.907 53.711,31.56 C 53.711,42.0957 53.711,52.6313 53.711,63.167 C 53.711,63.819 54.305,64.414 54.959,64.414 C 57.3553,64.414 59.7517,64.414 62.148,64.414 C 62.799,64.414 63.335,63.819 63.335,63.167 C 63.335,55.3643 63.335,47.5617 63.335,39.759 C 65.355,38.691 67.198,37.858 68.92,37.858 C 72.544,37.858 73.316,39.225 73.316,43.383 C 73.316,49.978 73.316,56.573 73.316,63.168 C 73.316,63.82 73.852,64.415 74.505,64.415 C 76.901,64.415 79.297,64.415 81.693,64.415 C 82.347,64.415 82.94,63.82 82.94,63.168 C 82.94,56.573 82.94,49.978 82.94,43.383 C 82.939,35.897 81.039,29.897 72.425,29.897z"/>
      <path style="fill: #0c2842; fill-opacity: 1; stroke-opacity: 0; stroke-width: 0.02; stroke: #ffffff" fill-rule="evenodd" d="M 118.137 30.373 C 115.741,30.373 113.346,30.373 110.95,30.373 C 110.296,30.373 109.761,30.967 109.761,31.621 C 109.761,39.4237 109.761,47.2263 109.761,55.029 C 107.741,56.098 105.898,56.93 104.176,56.93 C 100.552,56.93 99.78,55.564 99.78,51.404 C 99.78,44.8093 99.78,38.2147 99.78,31.62 C 99.78,30.966 99.244,30.372 98.592,30.372 C 96.1957,30.372 93.7993,30.372 91.403,30.372 C 90.749,30.372 90.155,30.966 90.155,31.62 C 90.155,38.2143 90.155,44.8087 90.155,51.403 C 90.155,58.889 92.056,64.89 100.67,64.89 C 104.472,64.89 107.087,64.118 110.354,61.8 C 110.354,62.2753 110.354,62.7507 110.354,63.226 C 110.354,63.88 110.89,64.414 111.543,64.414 C 113.761,64.414 115.979,64.414 118.197,64.414 C 118.851,64.414 119.384,63.88 119.384,63.226 C 119.384,52.6907 119.384,42.1553 119.384,31.62 C 119.384,30.966 118.791,30.373 118.137,30.373 C 118.137,30.373 118.137,30.373 118.137,30.373z"/>
      <path style="fill: #0c2842; fill-opacity: 1; stroke-opacity: 0; stroke-width: 0.02; stroke: #ffffff" fill-rule="evenodd" d="M 219.676 29.897 C 215.816,29.897 213.439,30.847 209.991,32.808 C 208.329,30.788 206.131,29.897 202.983,29.897 C 199.535,29.897 196.683,31.203 194.189,32.867 C 194.189,32.4317 194.189,31.9963 194.189,31.561 C 194.189,30.907 193.653,30.373 193.002,30.373 C 190.744,30.373 188.486,30.373 186.228,30.373 C 185.574,30.373 185.041,30.908 185.041,31.561 C 185.041,42.0967 185.041,52.6323 185.041,63.168 C 185.041,63.82 185.634,64.415 186.288,64.415 C 188.685,64.415 191.081,64.415 193.478,64.415 C 194.129,64.415 194.665,63.82 194.665,63.168 C 194.665,55.2857 194.665,47.4033 194.665,39.521 C 196.506,38.57 198.052,37.977 199.181,37.977 C 201.912,37.977 202.626,39.105 202.626,42.907 C 202.626,49.6607 202.626,56.4143 202.626,63.168 C 202.626,63.82 203.22,64.415 203.874,64.415 C 206.27,64.415 208.667,64.415 211.063,64.415 C 211.714,64.415 212.25,63.82 212.25,63.168 C 212.25,56.4143 212.25,49.6607 212.25,42.907 C 212.25,41.601 212.19,40.234 212.072,39.046 C 213.855,38.215 215.638,37.977 216.646,37.977 C 219.379,37.977 220.27,39.105 220.27,42.907 C 220.27,49.6607 220.27,56.4143 220.27,63.168 C 220.27,63.82 220.806,64.415 221.459,64.415 C 223.856,64.415 226.252,64.415 228.649,64.415 C 229.3,64.415 229.896,63.82 229.896,63.168 C 229.896,56.4143 229.896,49.6607 229.896,42.907 C 229.896,35.125 227.52,29.897 219.676,29.897 C 219.676,29.897 219.676,29.897 219.676,29.897z"/>
      <path style="fill: #0c2842; fill-opacity: 1; stroke-opacity: 0; stroke-width: 0.02; stroke: #ffffff" fill-rule="evenodd" d="M 265.216 30.373 C 262.82,30.373 260.423,30.373 258.027,30.373 C 257.374,30.373 256.84,30.967 256.84,31.621 C 256.84,39.4237 256.84,47.2263 256.84,55.029 C 254.818,56.098 252.977,56.93 251.254,56.93 C 247.63,56.93 246.858,55.564 246.858,51.404 C 246.858,44.8093 246.858,38.2147 246.858,31.62 C 246.858,30.966 246.322,30.372 245.669,30.372 C 243.272,30.372 240.876,30.372 238.479,30.372 C 237.828,30.372 237.232,30.966 237.232,31.62 C 237.232,38.2143 237.232,44.8087 237.232,51.403 C 237.232,58.889 239.133,64.89 247.749,64.89 C 251.551,64.89 254.164,64.118 257.433,61.8 C 257.433,62.2753 257.433,62.7507 257.433,63.226 C 257.433,63.88 257.966,64.414 258.621,64.414 C 260.839,64.414 263.057,64.414 265.275,64.414 C 265.928,64.414 266.463,63.88 266.463,63.226 C 266.463,52.6907 266.463,42.1553 266.463,31.62 C 266.463,30.966 265.87,30.373 265.216,30.373 C 265.216,30.373 265.216,30.373 265.216,30.373z"/>
      <path style="fill: #0c2842; fill-opacity: 1; stroke-opacity: 0; stroke-width: 0.02; stroke: #ffffff" fill-rule="evenodd" d="M 291.943 45.819 C 289.487,44.413 287.03,43.007 284.574,41.601 C 283.387,40.888 282.734,40.413 282.734,39.521 C 282.734,38.154 283.566,37.798 285.882,37.798 C 288.911,37.798 294.022,38.332 295.744,38.57 C 295.802,38.57 295.862,38.57 295.923,38.57 C 296.517,38.57 296.932,38.153 296.932,37.442 C 296.932,35.8377 296.932,34.2333 296.932,32.629 C 296.932,31.916 296.517,31.441 295.802,31.264 C 292.775,30.491 289.923,29.897 285.228,29.897 C 277.03,29.897 273.049,33.105 273.049,39.105 C 273.049,42.968 275.01,45.998 278.337,47.899 C 280.911,49.384 283.486,50.869 286.06,52.354 C 287.723,53.304 288.258,53.958 288.258,54.849 C 288.258,56.394 287.605,57.165 284.752,57.165 C 282.852,57.165 277.861,56.75 274.653,56.334 C 274.592,56.334 274.474,56.334 274.414,56.334 C 273.702,56.334 273.287,56.868 273.287,57.463 C 273.287,59.0673 273.287,60.6717 273.287,62.276 C 273.287,62.989 273.702,63.464 274.414,63.642 C 277.444,64.473 281.961,64.949 285.227,64.949 C 293.901,64.949 297.942,60.553 297.942,54.968 C 297.943,51.761 296.874,48.671 291.943,45.819 C 291.943,45.819 291.943,45.819 291.943,45.819z"/>
      <path style="fill: #0c2842; fill-opacity: 1; stroke-opacity: 0; stroke-width: 0.02; stroke: #ffffff" fill-rule="evenodd" d="M 322.581 57.642 C 321.611,57.642 320.641,57.642 319.671,57.642 C 317.888,57.642 317.71,57.227 317.71,54.85 C 317.71,49.087 317.71,43.324 317.71,37.561 C 319.334,37.561 320.957,37.561 322.581,37.561 C 323.234,37.561 323.77,37.026 323.77,36.373 C 323.77,34.769 323.77,33.165 323.77,31.561 C 323.77,30.907 323.234,30.373 322.581,30.373 C 320.957,30.373 319.334,30.373 317.71,30.373 C 317.71,28.2737 317.71,26.1743 317.71,24.075 C 317.71,23.482 317.234,23.065 316.641,23.065 C 316.58,23.065 316.521,23.065 316.462,23.065 C 314.046,23.481 311.631,23.897 309.215,24.313 C 308.561,24.433 308.026,24.847 308.026,25.501 C 308.026,27.1253 308.026,28.7497 308.026,30.374 C 306.442,30.374 304.857,30.374 303.273,30.374 C 302.619,30.374 302.026,30.968 302.026,31.622 C 302.026,32.929 302.026,34.236 302.026,35.543 C 302.026,36.196 302.619,36.671 303.273,36.791 C 304.857,37.0483 306.442,37.3057 308.026,37.563 C 308.026,43.3053 308.026,49.0477 308.026,54.79 C 308.026,63.227 311.471,64.949 318.006,64.949 C 319.729,64.949 320.918,64.77 322.699,64.473 C 323.413,64.355 323.828,63.88 323.828,63.285 C 323.828,61.7403 323.828,60.1957 323.828,58.651 C 323.828,57.998 323.353,57.642 322.581,57.642 C 322.581,57.642 322.581,57.642 322.581,57.642z"/>
      <path style="fill: #0c2842; fill-opacity: 1; stroke-opacity: 0; stroke-width: 0.02; stroke: #ffffff" fill-rule="evenodd" d="M 343.359 29.897 C 333.914,29.897 328.329,35.956 328.329,45.522 L 328.329,49.68 C 328.329,61.147 336.052,64.949 343.241,64.949 C 348.409,64.949 351.618,64.473 355.421,63.523 C 356.432,63.286 356.668,62.869 356.668,61.919 L 356.668,57.405 C 356.668,56.751 356.192,56.454 355.539,56.454 C 355.48,56.454 355.421,56.454 355.36,56.454 C 352.986,56.69 347.697,56.989 343.953,56.989 C 339.261,56.989 337.835,53.899 337.835,50.511 L 337.835,50.393 L 356.789,50.393 C 357.56,50.393 358.036,49.859 358.036,48.967 L 358.036,45.522 C 358.036,36.551 353.104,29.897 343.359,29.897 L 343.359,29.897M 348.648 44.453 L 337.835,44.453 L 337.835,44.215 C 337.835,39.879 340.033,37.62 343.302,37.62 C 346.629,37.62 348.649,39.819 348.649,44.215 L 348.649,44.453 L 348.648,44.453z"/>
      <path style="fill: #0c2842; fill-opacity: 1; stroke-opacity: 0; stroke-width: 0.02; stroke: #ffffff" fill-rule="evenodd" d="M 381.705 29.897 C 378.853,29.897 375.884,30.907 373.685,32.749 C 373.685,32.353 373.685,31.957 373.685,31.561 C 373.685,30.907 373.15,30.373 372.496,30.373 C 370.14,30.373 367.783,30.373 365.427,30.373 C 364.774,30.373 364.238,30.908 364.238,31.561 C 364.238,42.0967 364.238,52.6323 364.238,63.168 C 364.238,63.82 364.835,64.415 365.488,64.415 C 367.884,64.415 370.28,64.415 372.676,64.415 C 373.329,64.415 373.865,63.82 373.865,63.168 C 373.865,55.4247 373.865,47.6813 373.865,39.938 C 376.063,38.75 378.618,37.858 381.527,37.858 C 381.686,37.858 381.844,37.858 382.003,37.858 C 382.538,37.858 382.896,37.264 382.896,36.729 C 382.896,34.848 382.896,32.967 382.896,31.086 C 382.895,30.432 382.359,29.897 381.705,29.897 C 381.705,29.897 381.705,29.897 381.705,29.897z"/>
      <ellipse style="fill: #0c2842; fill-opacity: 1; stroke-opacity: 0; stroke-width: 0.02; stroke: #ffffff" cx="152.246" cy="44.646" rx="6.311" ry="6.311"/>
      <path style="fill: #0c2842; fill-opacity: 1; stroke-opacity: 0; stroke-width: 0.02; stroke: #ffffff" fill-rule="evenodd" d="M 381.667 57.13 C 381.537,57.13 381.408,57.13 381.278,57.13 C 380.632,57.13 380.048,57.711 380.048,58.359 C 380.048,59.9543 380.048,61.5497 380.048,63.145 C 380.048,63.857 380.632,64.374 381.278,64.374 C 381.408,64.374 381.537,64.374 381.667,64.374 C 382.313,64.374 382.895,63.856 382.895,63.145 C 382.895,61.5497 382.895,59.9543 382.895,58.359 C 382.895,57.711 382.313,57.13 381.667,57.13 C 381.667,57.13 381.667,57.13 381.667,57.13z"/>
      <path style="fill: #0c2842; fill-opacity: 1; stroke-opacity: 0; stroke-width: 0.02; stroke: #ffffff" fill-rule="evenodd" d="M 402.356 29.389 C 398.993,29.389 395.306,30.424 391.943,32.042 C 391.943,31.697 391.943,31.352 391.943,31.007 C 391.943,30.295 391.49,29.713 390.778,29.713 C 390.606,29.713 390.433,29.713 390.261,29.713 C 389.549,29.713 389.096,30.296 389.096,31.007 C 389.096,41.745 389.096,52.483 389.096,63.221 C 389.096,63.867 389.677,64.45 390.324,64.45 C 390.454,64.45 390.583,64.45 390.713,64.45 C 391.359,64.45 391.943,63.867 391.943,63.221 C 391.943,53.6687 391.943,44.1163 391.943,34.564 C 395.176,33.012 398.865,31.913 402.163,31.913 C 407.016,31.913 410.897,34.37 410.897,41.746 C 410.897,48.9047 410.897,56.0633 410.897,63.222 C 410.897,63.868 411.413,64.451 412.059,64.451 C 412.21,64.451 412.362,64.451 412.513,64.451 C 413.225,64.451 413.741,63.868 413.741,63.222 C 413.741,56.0633 413.741,48.9047 413.741,41.746 C 413.741,32.754 408.566,29.389 402.356,29.389 C 402.356,29.389 402.356,29.389 402.356,29.389z"/>
      <path style="fill: #0c2842; fill-opacity: 1; stroke-opacity: 0; stroke-width: 0.02; stroke: #ffffff" fill-rule="evenodd" d="M 433.011 29.389 C 424.472,29.389 419.944,35.923 419.944,44.85 L 419.944,49.12 C 419.944,61.346 426.477,64.84 434.5,64.84 C 437.409,64.84 441.096,64.386 444.201,63.739 C 445.174,63.545 445.431,63.221 445.431,62.51 L 445.431,62.058 C 445.431,61.217 444.719,61.087 444.073,61.217 C 440.903,61.863 437.344,62.316 434.5,62.316 C 428.029,62.316 422.789,59.988 422.789,49.121 L 422.789,47.763 L 444.654,47.763 C 445.301,47.763 445.883,47.245 445.883,46.534 L 445.883,44.788 C 445.882,35.6 441.938,29.389 433.011,29.389M 443.037 45.174 L 422.788,45.174 L 422.788,44.851 C 422.788,37.153 425.83,31.913 433.011,31.913 C 440.321,31.913 443.037,36.635 443.037,44.786 L 443.037,45.174 L 443.037,45.174z"/>
      <path style="fill: #0c2842; fill-opacity: 1; stroke-opacity: 0; stroke-width: 0.02; stroke: #ffffff" fill-rule="evenodd" d="M 466.609 32.365 C 467.321,32.365 467.838,31.977 467.838,31.33 C 467.838,31.1143 467.838,30.8987 467.838,30.683 C 467.838,30.036 467.321,29.712 466.609,29.712 C 464.043,29.712 461.477,29.712 458.911,29.712 C 458.911,27.4913 458.911,25.2707 458.911,23.05 C 458.911,22.404 458.522,21.821 457.876,21.821 C 457.639,21.821 457.401,21.821 457.164,21.821 C 456.452,21.821 456.064,22.404 456.064,23.05 C 456.064,25.271 456.064,27.492 456.064,29.713 C 453.93,29.713 451.795,29.713 449.661,29.713 C 448.949,29.713 448.432,30.036 448.432,30.684 C 448.432,30.8997 448.432,31.1153 448.432,31.331 C 448.432,31.977 448.949,32.366 449.661,32.366 C 451.795,32.366 453.93,32.366 456.064,32.366 C 456.064,40.8617 456.064,49.3573 456.064,57.853 C 456.064,63.416 458.783,64.84 463.374,64.84 C 464.475,64.84 465.768,64.775 466.737,64.646 C 467.644,64.517 467.838,64.128 467.838,63.611 C 467.838,63.4813 467.838,63.3517 467.838,63.222 C 467.838,62.641 467.449,62.316 466.48,62.316 C 465.445,62.316 464.41,62.316 463.375,62.316 C 460.528,62.316 458.912,61.735 458.912,57.853 C 458.912,49.357 458.912,40.861 458.912,32.365 C 461.478,32.365 464.043,32.365 466.609,32.365 C 466.609,32.365 466.609,32.365 466.609,32.365z"/>
    </g>
  </g>
</svg>
